<?xml version="1.0" encoding="utf-8"?>
<!-- Generator: Adobe Illustrator 27.6.1, SVG Export Plug-In . SVG Version: 6.00 Build 0)  -->
<svg version="1.1" id="Layer_1" xmlns="http://www.w3.org/2000/svg" xmlns:xlink="http://www.w3.org/1999/xlink" x="0px" y="0px"
	 viewBox="0 0 726.75 193.94" style="enable-background:new 0 0 726.75 193.94;" xml:space="preserve">
<style type="text/css">
	.st0{fill:#ffffff;}
	.st1{fill:#007F48;}
</style>
<g>
	<path class="st0" d="M250.2,109.09H49.58c-14.01,0-25.37-11.36-25.37-25.37V4.84c0-2.67-2.17-4.84-4.84-4.84H4.84
		C2.17,0,0,2.17,0,4.84v78.63c0,26.78,21.23,49.84,49.67,49.84H250.2c2.67,0,4.84-2.17,4.84-4.84v-14.53
		C255.04,111.26,252.87,109.09,250.2,109.09z"/>
	<path class="st0" d="M320.39,60.72h14.44c2.66,0,4.81-2.15,4.81-4.81V41.47c0-2.66-2.15-4.81-4.81-4.81h-14.44
		c-2.66,0-4.81,2.15-4.81,4.81v14.44C315.58,58.57,317.73,60.72,320.39,60.72z"/>
	<path class="st0" d="M249.65,145.48h-19.37h-19.37c-2.67,0-4.84,2.17-4.84,4.84v14.53c0,2.67,2.17,4.84,4.84,4.84h19.37h19.37
		c2.67,0,4.84-2.17,4.84-4.84v-14.53C254.49,147.65,252.32,145.48,249.65,145.48z"/>
	<path class="st0" d="M479.54,145.6l-42.44-0.06c-14.02,0-24.8,11.36-24.8,25.38v18.17c0,2.67,1.59,4.84,4.27,4.84h14.53
		c2.67,0,4.84-2.17,4.84-4.84v-12.86c0-3.57,2.9-6.47,6.47-6.47h37.13c2.67,0,4.84-2.17,4.84-4.84v-14.48
		C484.38,147.77,482.21,145.6,479.54,145.6z"/>
	<path class="st0" d="M61.91,96.93h35.15l-0.01-0.06h7c2.67,0,4.84-2.17,4.84-4.84V77.55c0-2.67-2.17-4.84-4.84-4.84H93.69h-6.47
		H67.21c-3.57,0-6.47-2.9-6.47-6.47V53.38c0-2.67-2.17-4.84-4.84-4.84H41.38c-2.67,0-4.84,2.17-4.84,4.84v18.17
		C36.53,85.57,47.89,96.93,61.91,96.93z"/>
	<path class="st0" d="M479.53,72.83H465c-2.67,0-4.84,2.17-4.84,4.84v6.11c0,14.01-11.36,25.37-25.37,25.37H413.3
		c-0.06-5.46-0.74-12.58-2.71-17.29c-3.42-8.21-10.21-14.35-18.57-17.32c-15.25-5.42-32.09,2.67-37.49,17.99
		c-1.11,3.14-1.67,6.41-1.67,9.73c0,3.4,0.51,6.76,1.67,9.99c2.96,8.39,9.56,16.35,17.91,19.32c5.14,1.82,11.12,1.88,16.6,1.83
		c-0.62,13.46-11.7,24.19-25.31,24.19h-6.03c-2.67,0-4.84,2.17-4.84,4.84v14.16c0,2.67,1.88,4.47,4.85,4.86
		c3.21,0.42,6.37,0.35,6.37,0.35c25.75,0.14,49.24-21.6,49.24-49.13l21.39,0.69c26.78,0,49.67-21.81,49.67-49.68v-6.01
		C484.38,75,482.21,72.83,479.53,72.83z M382.92,113.86L382.92,113.86c-5.91,0-10.7-4.79-10.7-10.7s4.79-10.7,10.7-10.7l0,0
		c5.91,0,10.7,4.79,10.7,10.7C393.61,109.07,388.83,113.86,382.92,113.86z"/>
	<g>
		<path class="st1" d="M680.1,78.64H579.01c-2.4,0-4.35-1.95-4.35-4.35v-9.37c0-2.4,1.95-4.35,4.35-4.35H680.1
			c2.4,0,4.35,1.95,4.35,4.35v9.37C684.45,76.69,682.5,78.64,680.1,78.64z"/>
		<path class="st1" d="M677.08,193.94h-94.59c-27.43,0-49.67-22.24-49.67-49.67V49.68c0-27.43,22.24-49.67,49.67-49.67h94.59
			c27.43,0,49.67,22.24,49.67,49.67v94.59C726.75,171.7,704.51,193.94,677.08,193.94z M702.53,144.32V49.61
			c0-14.02-11.37-25.39-25.39-25.39h-94.71c-14.02,0-25.39,11.37-25.39,25.39v94.71c0,14.02,11.37,25.39,25.39,25.39h94.71
			C691.16,169.71,702.53,158.34,702.53,144.32z"/>
		<g>
			<path class="st1" d="M583.12,114.11c8.37,22.26,31.05,35.69,55.21,31.89c2.58-0.41,4.13-3.13,3.42-5.65l-1.98-7.58
				c-0.5-2.34-2.64-3.59-5-3.23c-13.69,2.08-29.17-4.62-35.91-20.93c-0.86-2.09-3.19-3.18-5.37-2.57l-7.39,2.04
				C583.52,108.81,582.18,111.6,583.12,114.11z"/>
		</g>
	</g>
	<path class="st0" d="M334.99,72.83h-14.56c-2.67,0-4.84,2.17-4.84,4.84v6.11c0,14.01-11.36,25.37-25.37,25.37h-18.21
		c-2.67,0-4.84,2.17-4.84,4.84v14.53c0,2.67,2.17,4.84,4.84,4.84h18.16c27.01,0,49.67-21.75,49.67-49.67v-6.02
		C339.83,75,337.66,72.83,334.99,72.83z"/>
</g>
</svg>
